<mxfile host="app.diagrams.net" agent="Mozilla/5.0 (X11; Linux x86_64) AppleWebKit/537.36 (KHTML, like Gecko) Chrome/131.0.0.0 Safari/537.36" version="24.9.3">
  <diagram name="Page-1" id="wYeMjQzVTR-6e-EB1LtP">
    <mxGraphModel dx="1430" dy="1870" grid="1" gridSize="10" guides="1" tooltips="1" connect="1" arrows="1" fold="1" page="1" pageScale="1" pageWidth="850" pageHeight="1100" math="0" shadow="0">
      <root>
        <mxCell id="0" />
        <mxCell id="1" parent="0" />
        <mxCell id="BsDxBFQQTsMlftjE2Vww-1" value="utente" style="whiteSpace=wrap;html=1;align=center;" vertex="1" parent="1">
          <mxGeometry x="200" y="130" width="60" height="40" as="geometry" />
        </mxCell>
        <mxCell id="BsDxBFQQTsMlftjE2Vww-2" value="immo&lt;span style=&quot;background-color: initial;&quot;&gt;bile&lt;/span&gt;" style="whiteSpace=wrap;html=1;align=center;" vertex="1" parent="1">
          <mxGeometry x="370" y="510" width="60" height="40" as="geometry" />
        </mxCell>
        <mxCell id="BsDxBFQQTsMlftjE2Vww-3" value="prezzo" style="ellipse;whiteSpace=wrap;html=1;align=center;fontStyle=4;" vertex="1" parent="1">
          <mxGeometry x="580" y="540" width="100" height="40" as="geometry" />
        </mxCell>
        <mxCell id="BsDxBFQQTsMlftjE2Vww-6" value="" style="endArrow=none;html=1;rounded=0;" edge="1" parent="1" source="BsDxBFQQTsMlftjE2Vww-2" target="BsDxBFQQTsMlftjE2Vww-3">
          <mxGeometry relative="1" as="geometry">
            <mxPoint x="460" y="530" as="sourcePoint" />
            <mxPoint x="570" y="540" as="targetPoint" />
          </mxGeometry>
        </mxCell>
        <mxCell id="BsDxBFQQTsMlftjE2Vww-7" value="proprietario" style="whiteSpace=wrap;html=1;align=center;" vertex="1" parent="1">
          <mxGeometry x="590" y="800" width="100" height="40" as="geometry" />
        </mxCell>
        <mxCell id="BsDxBFQQTsMlftjE2Vww-12" value="agenzia" style="whiteSpace=wrap;html=1;align=center;" vertex="1" parent="1">
          <mxGeometry x="200" y="800" width="60" height="40" as="geometry" />
        </mxCell>
        <mxCell id="BsDxBFQQTsMlftjE2Vww-15" value="nome_utente" style="ellipse;whiteSpace=wrap;html=1;align=center;fontStyle=4;" vertex="1" parent="1">
          <mxGeometry x="310" y="-30" width="100" height="40" as="geometry" />
        </mxCell>
        <mxCell id="BsDxBFQQTsMlftjE2Vww-16" value="password" style="ellipse;whiteSpace=wrap;html=1;align=center;fontStyle=4;" vertex="1" parent="1">
          <mxGeometry x="310" y="20" width="100" height="40" as="geometry" />
        </mxCell>
        <mxCell id="BsDxBFQQTsMlftjE2Vww-19" value="" style="endArrow=none;html=1;rounded=0;" edge="1" parent="1" source="BsDxBFQQTsMlftjE2Vww-1" target="BsDxBFQQTsMlftjE2Vww-15">
          <mxGeometry relative="1" as="geometry">
            <mxPoint x="290" y="330" as="sourcePoint" />
            <mxPoint x="450" y="330" as="targetPoint" />
            <Array as="points">
              <mxPoint x="260" />
            </Array>
          </mxGeometry>
        </mxCell>
        <mxCell id="BsDxBFQQTsMlftjE2Vww-20" value="" style="endArrow=none;html=1;rounded=0;" edge="1" parent="1" source="BsDxBFQQTsMlftjE2Vww-1" target="BsDxBFQQTsMlftjE2Vww-16">
          <mxGeometry relative="1" as="geometry">
            <mxPoint x="290" y="330" as="sourcePoint" />
            <mxPoint x="450" y="330" as="targetPoint" />
            <Array as="points">
              <mxPoint x="290" y="60" />
            </Array>
          </mxGeometry>
        </mxCell>
        <mxCell id="BsDxBFQQTsMlftjE2Vww-21" value="mail" style="ellipse;whiteSpace=wrap;html=1;align=center;fontStyle=4;" vertex="1" parent="1">
          <mxGeometry x="310" y="70" width="100" height="40" as="geometry" />
        </mxCell>
        <mxCell id="BsDxBFQQTsMlftjE2Vww-22" value="" style="endArrow=none;html=1;rounded=0;" edge="1" parent="1" source="BsDxBFQQTsMlftjE2Vww-1" target="BsDxBFQQTsMlftjE2Vww-21">
          <mxGeometry relative="1" as="geometry">
            <mxPoint x="270" y="158" as="sourcePoint" />
            <mxPoint x="321" y="154" as="targetPoint" />
          </mxGeometry>
        </mxCell>
        <mxCell id="BsDxBFQQTsMlftjE2Vww-23" value="data_nascita" style="ellipse;whiteSpace=wrap;html=1;align=center;fontStyle=4;" vertex="1" parent="1">
          <mxGeometry x="310" y="120" width="100" height="40" as="geometry" />
        </mxCell>
        <mxCell id="BsDxBFQQTsMlftjE2Vww-24" value="" style="endArrow=none;html=1;rounded=0;" edge="1" parent="1" source="BsDxBFQQTsMlftjE2Vww-1" target="BsDxBFQQTsMlftjE2Vww-23">
          <mxGeometry relative="1" as="geometry">
            <mxPoint x="270" y="160" as="sourcePoint" />
            <mxPoint x="320" y="160" as="targetPoint" />
          </mxGeometry>
        </mxCell>
        <mxCell id="BsDxBFQQTsMlftjE2Vww-25" value="cellulare" style="ellipse;whiteSpace=wrap;html=1;align=center;fontStyle=4;" vertex="1" parent="1">
          <mxGeometry x="310" y="180" width="100" height="40" as="geometry" />
        </mxCell>
        <mxCell id="BsDxBFQQTsMlftjE2Vww-26" value="" style="endArrow=none;html=1;rounded=0;" edge="1" parent="1" source="BsDxBFQQTsMlftjE2Vww-1" target="BsDxBFQQTsMlftjE2Vww-25">
          <mxGeometry relative="1" as="geometry">
            <mxPoint x="270" y="158" as="sourcePoint" />
            <mxPoint x="321" y="154" as="targetPoint" />
          </mxGeometry>
        </mxCell>
        <mxCell id="BsDxBFQQTsMlftjE2Vww-27" value="immagini" style="ellipse;whiteSpace=wrap;html=1;align=center;fontStyle=4;" vertex="1" parent="1">
          <mxGeometry x="420" y="370" width="100" height="40" as="geometry" />
        </mxCell>
        <mxCell id="BsDxBFQQTsMlftjE2Vww-29" value="nome" style="ellipse;whiteSpace=wrap;html=1;align=center;fontStyle=4;" vertex="1" parent="1">
          <mxGeometry x="530" y="330" width="100" height="40" as="geometry" />
        </mxCell>
        <mxCell id="BsDxBFQQTsMlftjE2Vww-31" value="posizione" style="ellipse;whiteSpace=wrap;html=1;align=center;fontStyle=4;" vertex="1" parent="1">
          <mxGeometry x="530" y="390" width="100" height="40" as="geometry" />
        </mxCell>
        <mxCell id="BsDxBFQQTsMlftjE2Vww-32" value="" style="endArrow=none;html=1;rounded=0;" edge="1" parent="1" source="BsDxBFQQTsMlftjE2Vww-2" target="BsDxBFQQTsMlftjE2Vww-31">
          <mxGeometry relative="1" as="geometry">
            <mxPoint x="430" y="490" as="sourcePoint" />
            <mxPoint x="490" y="490" as="targetPoint" />
          </mxGeometry>
        </mxCell>
        <mxCell id="BsDxBFQQTsMlftjE2Vww-33" value="locali" style="ellipse;whiteSpace=wrap;html=1;align=center;fontStyle=4;" vertex="1" parent="1">
          <mxGeometry x="580" y="600" width="100" height="40" as="geometry" />
        </mxCell>
        <mxCell id="BsDxBFQQTsMlftjE2Vww-34" value="metratura" style="ellipse;whiteSpace=wrap;html=1;align=center;fontStyle=4;" vertex="1" parent="1">
          <mxGeometry x="490" y="630" width="100" height="40" as="geometry" />
        </mxCell>
        <mxCell id="BsDxBFQQTsMlftjE2Vww-35" value="bagno" style="ellipse;whiteSpace=wrap;html=1;align=center;fontStyle=4;" vertex="1" parent="1">
          <mxGeometry x="370" y="630" width="100" height="40" as="geometry" />
        </mxCell>
        <mxCell id="BsDxBFQQTsMlftjE2Vww-36" value="piano" style="ellipse;whiteSpace=wrap;html=1;align=center;fontStyle=4;" vertex="1" parent="1">
          <mxGeometry x="250" y="630" width="100" height="40" as="geometry" />
        </mxCell>
        <mxCell id="BsDxBFQQTsMlftjE2Vww-37" value="balcone" style="ellipse;whiteSpace=wrap;html=1;align=center;fontStyle=4;" vertex="1" parent="1">
          <mxGeometry x="210" y="510" width="100" height="40" as="geometry" />
        </mxCell>
        <mxCell id="BsDxBFQQTsMlftjE2Vww-38" value="ascensore" style="ellipse;whiteSpace=wrap;html=1;align=center;fontStyle=4;" vertex="1" parent="1">
          <mxGeometry x="220" y="570" width="100" height="40" as="geometry" />
        </mxCell>
        <mxCell id="BsDxBFQQTsMlftjE2Vww-39" value="" style="endArrow=none;html=1;rounded=0;" edge="1" parent="1" source="BsDxBFQQTsMlftjE2Vww-2" target="BsDxBFQQTsMlftjE2Vww-33">
          <mxGeometry relative="1" as="geometry">
            <mxPoint x="430" y="580" as="sourcePoint" />
            <mxPoint x="490" y="580" as="targetPoint" />
          </mxGeometry>
        </mxCell>
        <mxCell id="BsDxBFQQTsMlftjE2Vww-40" value="" style="endArrow=none;html=1;rounded=0;" edge="1" parent="1" source="BsDxBFQQTsMlftjE2Vww-2" target="BsDxBFQQTsMlftjE2Vww-34">
          <mxGeometry relative="1" as="geometry">
            <mxPoint x="420" y="589.8" as="sourcePoint" />
            <mxPoint x="480" y="589.8" as="targetPoint" />
          </mxGeometry>
        </mxCell>
        <mxCell id="BsDxBFQQTsMlftjE2Vww-41" value="" style="endArrow=none;html=1;rounded=0;" edge="1" parent="1" source="BsDxBFQQTsMlftjE2Vww-2" target="BsDxBFQQTsMlftjE2Vww-35">
          <mxGeometry relative="1" as="geometry">
            <mxPoint x="410" y="600" as="sourcePoint" />
            <mxPoint x="470" y="600" as="targetPoint" />
          </mxGeometry>
        </mxCell>
        <mxCell id="BsDxBFQQTsMlftjE2Vww-42" value="" style="endArrow=none;html=1;rounded=0;" edge="1" parent="1" source="BsDxBFQQTsMlftjE2Vww-2" target="BsDxBFQQTsMlftjE2Vww-37">
          <mxGeometry relative="1" as="geometry">
            <mxPoint x="370" y="570" as="sourcePoint" />
            <mxPoint x="430" y="570" as="targetPoint" />
          </mxGeometry>
        </mxCell>
        <mxCell id="BsDxBFQQTsMlftjE2Vww-43" value="" style="endArrow=none;html=1;rounded=0;" edge="1" parent="1" source="BsDxBFQQTsMlftjE2Vww-2" target="BsDxBFQQTsMlftjE2Vww-38">
          <mxGeometry relative="1" as="geometry">
            <mxPoint x="360" y="579.8" as="sourcePoint" />
            <mxPoint x="420" y="579.8" as="targetPoint" />
          </mxGeometry>
        </mxCell>
        <mxCell id="BsDxBFQQTsMlftjE2Vww-44" value="" style="endArrow=none;html=1;rounded=0;" edge="1" parent="1" source="BsDxBFQQTsMlftjE2Vww-2" target="BsDxBFQQTsMlftjE2Vww-36">
          <mxGeometry relative="1" as="geometry">
            <mxPoint x="350" y="590" as="sourcePoint" />
            <mxPoint x="410" y="590" as="targetPoint" />
          </mxGeometry>
        </mxCell>
        <mxCell id="BsDxBFQQTsMlftjE2Vww-45" value="aggiornato_alle" style="ellipse;whiteSpace=wrap;html=1;align=center;fontStyle=4;" vertex="1" parent="1">
          <mxGeometry x="220" y="450" width="100" height="40" as="geometry" />
        </mxCell>
        <mxCell id="BsDxBFQQTsMlftjE2Vww-46" value="" style="endArrow=none;html=1;rounded=0;" edge="1" parent="1" source="BsDxBFQQTsMlftjE2Vww-2" target="BsDxBFQQTsMlftjE2Vww-45">
          <mxGeometry relative="1" as="geometry">
            <mxPoint x="370" y="509.6" as="sourcePoint" />
            <mxPoint x="310" y="509.6" as="targetPoint" />
          </mxGeometry>
        </mxCell>
        <mxCell id="BsDxBFQQTsMlftjE2Vww-47" value="riferimento" style="ellipse;whiteSpace=wrap;html=1;align=center;fontStyle=4;" vertex="1" parent="1">
          <mxGeometry x="220" y="390" width="100" height="40" as="geometry" />
        </mxCell>
        <mxCell id="BsDxBFQQTsMlftjE2Vww-48" value="" style="endArrow=none;html=1;rounded=0;" edge="1" parent="1" source="BsDxBFQQTsMlftjE2Vww-2" target="BsDxBFQQTsMlftjE2Vww-47">
          <mxGeometry relative="1" as="geometry">
            <mxPoint x="387.25" y="470.89" as="sourcePoint" />
            <mxPoint x="320.25" y="439.89" as="targetPoint" />
          </mxGeometry>
        </mxCell>
        <mxCell id="BsDxBFQQTsMlftjE2Vww-49" value="descrizione_titolo" style="ellipse;whiteSpace=wrap;html=1;align=center;fontStyle=4;" vertex="1" parent="1">
          <mxGeometry x="270" y="340" width="100" height="40" as="geometry" />
        </mxCell>
        <mxCell id="BsDxBFQQTsMlftjE2Vww-50" value="descrizione_testo" style="ellipse;whiteSpace=wrap;html=1;align=center;fontStyle=4;" vertex="1" parent="1">
          <mxGeometry x="370" y="320" width="100" height="40" as="geometry" />
        </mxCell>
        <mxCell id="BsDxBFQQTsMlftjE2Vww-51" value="" style="endArrow=none;html=1;rounded=0;" edge="1" parent="1" source="BsDxBFQQTsMlftjE2Vww-2" target="BsDxBFQQTsMlftjE2Vww-29">
          <mxGeometry relative="1" as="geometry">
            <mxPoint x="400" y="483.86" as="sourcePoint" />
            <mxPoint x="485" y="449.86" as="targetPoint" />
          </mxGeometry>
        </mxCell>
        <mxCell id="BsDxBFQQTsMlftjE2Vww-52" value="" style="endArrow=none;html=1;rounded=0;" edge="1" parent="1" source="BsDxBFQQTsMlftjE2Vww-2" target="BsDxBFQQTsMlftjE2Vww-27">
          <mxGeometry relative="1" as="geometry">
            <mxPoint x="390" y="474" as="sourcePoint" />
            <mxPoint x="475" y="440" as="targetPoint" />
          </mxGeometry>
        </mxCell>
        <mxCell id="BsDxBFQQTsMlftjE2Vww-53" value="" style="endArrow=none;html=1;rounded=0;" edge="1" parent="1" source="BsDxBFQQTsMlftjE2Vww-2" target="BsDxBFQQTsMlftjE2Vww-50">
          <mxGeometry relative="1" as="geometry">
            <mxPoint x="382.5" y="463.86" as="sourcePoint" />
            <mxPoint x="467.5" y="429.86" as="targetPoint" />
          </mxGeometry>
        </mxCell>
        <mxCell id="BsDxBFQQTsMlftjE2Vww-54" value="" style="endArrow=none;html=1;rounded=0;" edge="1" parent="1" source="BsDxBFQQTsMlftjE2Vww-2" target="BsDxBFQQTsMlftjE2Vww-49">
          <mxGeometry relative="1" as="geometry">
            <mxPoint x="372.5" y="454" as="sourcePoint" />
            <mxPoint x="457.5" y="420" as="targetPoint" />
          </mxGeometry>
        </mxCell>
        <mxCell id="BsDxBFQQTsMlftjE2Vww-55" value="" style="endArrow=none;html=1;rounded=0;" edge="1" parent="1" source="BsDxBFQQTsMlftjE2Vww-15" target="BsDxBFQQTsMlftjE2Vww-56">
          <mxGeometry relative="1" as="geometry">
            <mxPoint x="460" y="-10.200000000000003" as="sourcePoint" />
            <mxPoint x="490" y="-10" as="targetPoint" />
          </mxGeometry>
        </mxCell>
        <mxCell id="BsDxBFQQTsMlftjE2Vww-56" value="java: String&lt;div&gt;db: VARCHAR&lt;/div&gt;" style="ellipse;whiteSpace=wrap;html=1;align=center;fontStyle=4;" vertex="1" parent="1">
          <mxGeometry x="480" y="-70" width="100" height="50" as="geometry" />
        </mxCell>
        <mxCell id="BsDxBFQQTsMlftjE2Vww-59" value="java: String&lt;div&gt;db: VARCHAR&lt;/div&gt;" style="ellipse;whiteSpace=wrap;html=1;align=center;fontStyle=4;" vertex="1" parent="1">
          <mxGeometry x="479" y="-15" width="100" height="50" as="geometry" />
        </mxCell>
        <mxCell id="BsDxBFQQTsMlftjE2Vww-61" value="" style="endArrow=none;html=1;rounded=0;" edge="1" parent="1" source="BsDxBFQQTsMlftjE2Vww-16" target="BsDxBFQQTsMlftjE2Vww-59">
          <mxGeometry relative="1" as="geometry">
            <mxPoint x="430.45" y="70.08" as="sourcePoint" />
            <mxPoint x="509.45" y="53.08" as="targetPoint" />
          </mxGeometry>
        </mxCell>
        <mxCell id="BsDxBFQQTsMlftjE2Vww-62" value="" style="endArrow=none;html=1;rounded=0;" edge="1" parent="1" source="BsDxBFQQTsMlftjE2Vww-21" target="BsDxBFQQTsMlftjE2Vww-66">
          <mxGeometry relative="1" as="geometry">
            <mxPoint x="440.45" y="86.53" as="sourcePoint" />
            <mxPoint x="519.45" y="69.53" as="targetPoint" />
          </mxGeometry>
        </mxCell>
        <mxCell id="BsDxBFQQTsMlftjE2Vww-66" value="java: String&lt;div&gt;db: VARCHAR&lt;/div&gt;" style="ellipse;whiteSpace=wrap;html=1;align=center;fontStyle=4;" vertex="1" parent="1">
          <mxGeometry x="480" y="40" width="100" height="50" as="geometry" />
        </mxCell>
        <mxCell id="BsDxBFQQTsMlftjE2Vww-67" value="java: LocalDate&lt;div&gt;db: DATE&lt;/div&gt;" style="ellipse;whiteSpace=wrap;html=1;align=center;fontStyle=4;" vertex="1" parent="1">
          <mxGeometry x="480" y="100" width="100" height="50" as="geometry" />
        </mxCell>
        <mxCell id="BsDxBFQQTsMlftjE2Vww-69" value="" style="endArrow=none;html=1;rounded=0;" edge="1" parent="1" source="BsDxBFQQTsMlftjE2Vww-23" target="BsDxBFQQTsMlftjE2Vww-67">
          <mxGeometry relative="1" as="geometry">
            <mxPoint x="424.97" y="155.39" as="sourcePoint" />
            <mxPoint x="499.97" y="144.39" as="targetPoint" />
          </mxGeometry>
        </mxCell>
        <mxCell id="BsDxBFQQTsMlftjE2Vww-72" value="java: String&lt;div&gt;db: VARCHAR&lt;/div&gt;" style="ellipse;whiteSpace=wrap;html=1;align=center;fontStyle=4;" vertex="1" parent="1">
          <mxGeometry x="480" y="175" width="100" height="50" as="geometry" />
        </mxCell>
        <mxCell id="BsDxBFQQTsMlftjE2Vww-73" value="" style="endArrow=none;html=1;rounded=0;" edge="1" parent="1" source="BsDxBFQQTsMlftjE2Vww-25" target="BsDxBFQQTsMlftjE2Vww-72">
          <mxGeometry relative="1" as="geometry">
            <mxPoint x="410.13" y="180.22" as="sourcePoint" />
            <mxPoint x="482.13" y="173.22" as="targetPoint" />
          </mxGeometry>
        </mxCell>
        <mxCell id="BsDxBFQQTsMlftjE2Vww-74" value="java: String&lt;div&gt;db: VARCHAR&lt;/div&gt;" style="ellipse;whiteSpace=wrap;html=1;align=center;fontStyle=4;" vertex="1" parent="1">
          <mxGeometry x="579" y="230" width="100" height="50" as="geometry" />
        </mxCell>
        <mxCell id="BsDxBFQQTsMlftjE2Vww-75" value="" style="endArrow=none;html=1;rounded=0;" edge="1" parent="1" source="BsDxBFQQTsMlftjE2Vww-29" target="BsDxBFQQTsMlftjE2Vww-74">
          <mxGeometry relative="1" as="geometry">
            <mxPoint x="440" y="250" as="sourcePoint" />
            <mxPoint x="510" y="250" as="targetPoint" />
          </mxGeometry>
        </mxCell>
        <mxCell id="BsDxBFQQTsMlftjE2Vww-76" value="java: String&lt;div&gt;db: VARCHAR&lt;/div&gt;" style="ellipse;whiteSpace=wrap;html=1;align=center;fontStyle=4;" vertex="1" parent="1">
          <mxGeometry x="650" y="310" width="100" height="50" as="geometry" />
        </mxCell>
        <mxCell id="BsDxBFQQTsMlftjE2Vww-77" value="" style="endArrow=none;html=1;rounded=0;" edge="1" parent="1" source="BsDxBFQQTsMlftjE2Vww-31" target="BsDxBFQQTsMlftjE2Vww-76">
          <mxGeometry relative="1" as="geometry">
            <mxPoint x="660.14" y="528.04" as="sourcePoint" />
            <mxPoint x="770.14" y="470.04" as="targetPoint" />
          </mxGeometry>
        </mxCell>
        <mxCell id="BsDxBFQQTsMlftjE2Vww-78" value="coordX" style="ellipse;whiteSpace=wrap;html=1;align=center;fontStyle=4;" vertex="1" parent="1">
          <mxGeometry x="570" y="430" width="100" height="40" as="geometry" />
        </mxCell>
        <mxCell id="BsDxBFQQTsMlftjE2Vww-79" value="coordY" style="ellipse;whiteSpace=wrap;html=1;align=center;fontStyle=4;" vertex="1" parent="1">
          <mxGeometry x="579" y="480" width="100" height="40" as="geometry" />
        </mxCell>
        <mxCell id="BsDxBFQQTsMlftjE2Vww-80" value="" style="endArrow=none;html=1;rounded=0;" edge="1" parent="1" source="BsDxBFQQTsMlftjE2Vww-2" target="BsDxBFQQTsMlftjE2Vww-78">
          <mxGeometry relative="1" as="geometry">
            <mxPoint x="454.72" y="532.85" as="sourcePoint" />
            <mxPoint x="578.72" y="449.85" as="targetPoint" />
          </mxGeometry>
        </mxCell>
        <mxCell id="BsDxBFQQTsMlftjE2Vww-81" value="" style="endArrow=none;html=1;rounded=0;" edge="1" parent="1" source="BsDxBFQQTsMlftjE2Vww-2" target="BsDxBFQQTsMlftjE2Vww-79">
          <mxGeometry relative="1" as="geometry">
            <mxPoint x="437" y="527.73" as="sourcePoint" />
            <mxPoint x="590" y="471.73" as="targetPoint" />
          </mxGeometry>
        </mxCell>
        <mxCell id="BsDxBFQQTsMlftjE2Vww-83" value="java: float&lt;div&gt;db: FLOAT&lt;/div&gt;" style="ellipse;whiteSpace=wrap;html=1;align=center;fontStyle=4;" vertex="1" parent="1">
          <mxGeometry x="700" y="370" width="100" height="50" as="geometry" />
        </mxCell>
        <mxCell id="BsDxBFQQTsMlftjE2Vww-84" value="" style="endArrow=none;html=1;rounded=0;" edge="1" parent="1" source="BsDxBFQQTsMlftjE2Vww-78" target="BsDxBFQQTsMlftjE2Vww-83">
          <mxGeometry relative="1" as="geometry">
            <mxPoint x="670" y="585.55" as="sourcePoint" />
            <mxPoint x="823" y="529.55" as="targetPoint" />
          </mxGeometry>
        </mxCell>
        <mxCell id="BsDxBFQQTsMlftjE2Vww-86" value="" style="endArrow=none;html=1;rounded=0;" edge="1" parent="1" source="BsDxBFQQTsMlftjE2Vww-79" target="BsDxBFQQTsMlftjE2Vww-83">
          <mxGeometry relative="1" as="geometry">
            <mxPoint x="719.6" y="493.89" as="sourcePoint" />
            <mxPoint x="777.6" y="469.89" as="targetPoint" />
          </mxGeometry>
        </mxCell>
        <mxCell id="BsDxBFQQTsMlftjE2Vww-88" value="java: float&lt;div&gt;db: DECIMAL&lt;/div&gt;" style="ellipse;whiteSpace=wrap;html=1;align=center;fontStyle=4;" vertex="1" parent="1">
          <mxGeometry x="720" y="505" width="100" height="50" as="geometry" />
        </mxCell>
        <mxCell id="BsDxBFQQTsMlftjE2Vww-89" value="" style="endArrow=none;html=1;rounded=0;" edge="1" parent="1" source="BsDxBFQQTsMlftjE2Vww-3" target="BsDxBFQQTsMlftjE2Vww-88">
          <mxGeometry relative="1" as="geometry">
            <mxPoint x="700.13" y="505.17" as="sourcePoint" />
            <mxPoint x="775.13" y="440.17" as="targetPoint" />
          </mxGeometry>
        </mxCell>
        <mxCell id="BsDxBFQQTsMlftjE2Vww-90" value="java: int&lt;div&gt;db: SMALLINT&lt;/div&gt;" style="ellipse;whiteSpace=wrap;html=1;align=center;fontStyle=4;" vertex="1" parent="1">
          <mxGeometry x="720" y="595" width="100" height="50" as="geometry" />
        </mxCell>
        <mxCell id="BsDxBFQQTsMlftjE2Vww-91" value="" style="endArrow=none;html=1;rounded=0;" edge="1" parent="1" source="BsDxBFQQTsMlftjE2Vww-33" target="BsDxBFQQTsMlftjE2Vww-90">
          <mxGeometry relative="1" as="geometry">
            <mxPoint x="679.88" y="581.15" as="sourcePoint" />
            <mxPoint x="729.88" y="570.15" as="targetPoint" />
          </mxGeometry>
        </mxCell>
      </root>
    </mxGraphModel>
  </diagram>
</mxfile>
